<mxfile host="app.diagrams.net" modified="2023-10-03T11:56:58.102Z" agent="Mozilla/5.0 (Windows NT 10.0; Win64; x64) AppleWebKit/537.36 (KHTML, like Gecko) Chrome/117.0.0.0 Safari/537.36" version="22.0.1" etag="vhJtCdAd0BCEPJw0BkB0" type="github">
  <diagram name="第 1 页" id="X4ouanYJp2LV4_ICwAKu">
    <mxGraphModel>
      <root>
        <mxCell id="0" />
        <mxCell id="1" parent="0" />
      </root>
    </mxGraphModel>
  </diagram>
</mxfile>
